<?xml version="1.0" encoding="utf-8"?><svg viewBox="0 0 72 24" xmlns="http://www.w3.org/2000/svg" xmlns:xlink="http://www.w3.org/1999/xlink"><style>:root>svg{display:none}:root>svg:target{display:block}</style><svg fill="none" viewBox="0 0 20 20" id="account" xmlns="http://www.w3.org/2000/svg"><path fill-rule="evenodd" clip-rule="evenodd" d="M10 0C4.48 0 0 4.48 0 10s4.48 10 10 10 10-4.48 10-10S15.52 0 10 0zM5.07 16.28c.43-.9 3.05-1.78 4.93-1.78s4.51.88 4.93 1.78A7.893 7.893 0 0110 18c-1.86 0-3.57-.64-4.93-1.72zm11.29-1.45c-1.43-1.74-4.9-2.33-6.36-2.33s-4.93.59-6.36 2.33A7.95 7.95 0 012 10c0-4.41 3.59-8 8-8s8 3.59 8 8c0 1.82-.62 3.49-1.64 4.83zM10 4C8.06 4 6.5 5.56 6.5 7.5S8.06 11 10 11s3.5-1.56 3.5-3.5S11.94 4 10 4zm0 5c-.83 0-1.5-.67-1.5-1.5S9.17 6 10 6s1.5.67 1.5 1.5S10.83 9 10 9z" fill="#fff"/></svg><svg fill="none" viewBox="0 0 16 24" id="arrow_down" xmlns="http://www.w3.org/2000/svg"><path d="M16 16l-1.41-1.41L9 20.17V0H7v20.17l-5.58-5.59L0 16l8 8 8-8z" fill="#fff"/></svg><svg fill="none" viewBox="0 0 24 16" id="arrow_right" xmlns="http://www.w3.org/2000/svg"><path d="M16 0l-1.41 1.41L20.17 7H0v2h20.17l-5.59 5.58L16 16l8-8-8-8z" fill="#FBD784"/></svg><svg fill="none" viewBox="0 0 72 2" id="line" xmlns="http://www.w3.org/2000/svg"><path fill="#FBD784" d="M0 0h72v2H0z"/></svg></svg>